<mxfile host="app.diagrams.net" modified="2023-04-06T03:13:06.807Z" agent="5.0 (Macintosh; Intel Mac OS X 10_15_7) AppleWebKit/537.36 (KHTML, like Gecko) Chrome/109.0.0.0 Safari/537.36" etag="zmpJ0LKWgqoAHZ7yUqkE" version="20.5.3" type="github">
  <diagram name="Page-1" id="2c4490ee-f0b8-94ab-5012-d5dc3445f7a3">
    <mxGraphModel dx="2380" dy="1290" grid="1" gridSize="10" guides="1" tooltips="1" connect="0" arrows="1" fold="1" page="0" pageScale="1.5" pageWidth="1169" pageHeight="826" background="none" math="0" shadow="0">
      <root>
        <mxCell id="0" style=";html=1;" />
        <mxCell id="1" style=";html=1;" parent="0" />
        <mxCell id="uKrZGBWOZSiCV8R7dve0-182" value="" style="shape=table;startSize=0;container=1;collapsible=0;childLayout=tableLayout;strokeColor=default;fillColor=default;" vertex="1" parent="1">
          <mxGeometry x="-450" y="-350" width="1168" height="220" as="geometry" />
        </mxCell>
        <mxCell id="uKrZGBWOZSiCV8R7dve0-183" value="" style="shape=tableRow;horizontal=0;startSize=0;swimlaneHead=0;swimlaneBody=0;top=0;left=0;bottom=0;right=0;collapsible=0;dropTarget=0;fillColor=none;points=[[0,0.5],[1,0.5]];portConstraint=eastwest;strokeColor=default;" vertex="1" parent="uKrZGBWOZSiCV8R7dve0-182">
          <mxGeometry width="1168" height="73" as="geometry" />
        </mxCell>
        <mxCell id="uKrZGBWOZSiCV8R7dve0-184" value="" style="shape=partialRectangle;html=1;whiteSpace=wrap;connectable=0;overflow=hidden;fillColor=none;top=0;left=0;bottom=0;right=0;pointerEvents=1;strokeColor=default;" vertex="1" parent="uKrZGBWOZSiCV8R7dve0-183">
          <mxGeometry width="70" height="73" as="geometry">
            <mxRectangle width="70" height="73" as="alternateBounds" />
          </mxGeometry>
        </mxCell>
        <mxCell id="uKrZGBWOZSiCV8R7dve0-185" value="CPU TOTAL" style="shape=partialRectangle;html=1;whiteSpace=wrap;connectable=0;overflow=hidden;fillColor=none;top=0;left=0;bottom=0;right=0;pointerEvents=1;strokeColor=default;" vertex="1" parent="uKrZGBWOZSiCV8R7dve0-183">
          <mxGeometry x="70" width="64" height="73" as="geometry">
            <mxRectangle width="64" height="73" as="alternateBounds" />
          </mxGeometry>
        </mxCell>
        <mxCell id="uKrZGBWOZSiCV8R7dve0-186" value="CPU ALLOCATED" style="shape=partialRectangle;html=1;whiteSpace=wrap;connectable=0;overflow=hidden;fillColor=none;top=0;left=0;bottom=0;right=0;pointerEvents=1;strokeColor=default;" vertex="1" parent="uKrZGBWOZSiCV8R7dve0-183">
          <mxGeometry x="134" width="90" height="73" as="geometry">
            <mxRectangle width="90" height="73" as="alternateBounds" />
          </mxGeometry>
        </mxCell>
        <mxCell id="uKrZGBWOZSiCV8R7dve0-187" value="CPU &lt;br&gt;USAGE" style="shape=partialRectangle;html=1;whiteSpace=wrap;connectable=0;overflow=hidden;fillColor=none;top=0;left=0;bottom=0;right=0;pointerEvents=1;strokeColor=default;" vertex="1" parent="uKrZGBWOZSiCV8R7dve0-183">
          <mxGeometry x="224" width="91" height="73" as="geometry">
            <mxRectangle width="91" height="73" as="alternateBounds" />
          </mxGeometry>
        </mxCell>
        <mxCell id="uKrZGBWOZSiCV8R7dve0-188" value="CPU&lt;br&gt;USAGE RATE" style="shape=partialRectangle;html=1;whiteSpace=wrap;connectable=0;overflow=hidden;fillColor=none;top=0;left=0;bottom=0;right=0;pointerEvents=1;strokeColor=default;" vertex="1" parent="uKrZGBWOZSiCV8R7dve0-183">
          <mxGeometry x="315" width="67" height="73" as="geometry">
            <mxRectangle width="67" height="73" as="alternateBounds" />
          </mxGeometry>
        </mxCell>
        <mxCell id="uKrZGBWOZSiCV8R7dve0-189" value="MEMORY&lt;br&gt;TOTAL" style="shape=partialRectangle;html=1;whiteSpace=wrap;connectable=0;overflow=hidden;fillColor=none;top=0;left=0;bottom=0;right=0;pointerEvents=1;strokeColor=default;" vertex="1" parent="uKrZGBWOZSiCV8R7dve0-183">
          <mxGeometry x="382" width="102" height="73" as="geometry">
            <mxRectangle width="102" height="73" as="alternateBounds" />
          </mxGeometry>
        </mxCell>
        <mxCell id="uKrZGBWOZSiCV8R7dve0-190" value="MEMORY&lt;br&gt;&amp;nbsp;ALLOCATED" style="shape=partialRectangle;html=1;whiteSpace=wrap;connectable=0;overflow=hidden;fillColor=none;top=0;left=0;bottom=0;right=0;pointerEvents=1;strokeColor=default;" vertex="1" parent="uKrZGBWOZSiCV8R7dve0-183">
          <mxGeometry x="484" width="101" height="73" as="geometry">
            <mxRectangle width="101" height="73" as="alternateBounds" />
          </mxGeometry>
        </mxCell>
        <mxCell id="uKrZGBWOZSiCV8R7dve0-191" value="&lt;span style=&quot;color: rgb(0, 0, 0); font-family: Helvetica; font-size: 12px; font-style: normal; font-variant-ligatures: normal; font-variant-caps: normal; font-weight: 400; letter-spacing: normal; orphans: 2; text-align: center; text-indent: 0px; text-transform: none; widows: 2; word-spacing: 0px; -webkit-text-stroke-width: 0px; background-color: rgb(255, 255, 255); text-decoration-thickness: initial; text-decoration-style: initial; text-decoration-color: initial; float: none; display: inline !important;&quot;&gt;MEMORY&lt;/span&gt;&lt;br style=&quot;color: rgb(0, 0, 0); font-family: Helvetica; font-size: 12px; font-style: normal; font-variant-ligatures: normal; font-variant-caps: normal; font-weight: 400; letter-spacing: normal; orphans: 2; text-align: center; text-indent: 0px; text-transform: none; widows: 2; word-spacing: 0px; -webkit-text-stroke-width: 0px; background-color: rgb(255, 255, 255); text-decoration-thickness: initial; text-decoration-style: initial; text-decoration-color: initial;&quot;&gt;USAGE" style="shape=partialRectangle;html=1;whiteSpace=wrap;connectable=0;overflow=hidden;fillColor=none;top=0;left=0;bottom=0;right=0;pointerEvents=1;strokeColor=default;" vertex="1" parent="uKrZGBWOZSiCV8R7dve0-183">
          <mxGeometry x="585" width="90" height="73" as="geometry">
            <mxRectangle width="90" height="73" as="alternateBounds" />
          </mxGeometry>
        </mxCell>
        <mxCell id="uKrZGBWOZSiCV8R7dve0-192" value="MEMORY&lt;br&gt;USAGE RATE" style="shape=partialRectangle;html=1;whiteSpace=wrap;connectable=0;overflow=hidden;fillColor=none;top=0;left=0;bottom=0;right=0;pointerEvents=1;strokeColor=default;" vertex="1" parent="uKrZGBWOZSiCV8R7dve0-183">
          <mxGeometry x="675" width="74" height="73" as="geometry">
            <mxRectangle width="74" height="73" as="alternateBounds" />
          </mxGeometry>
        </mxCell>
        <mxCell id="uKrZGBWOZSiCV8R7dve0-193" value="STORAGE&lt;br&gt;TOTAL" style="shape=partialRectangle;html=1;whiteSpace=wrap;connectable=0;overflow=hidden;fillColor=none;top=0;left=0;bottom=0;right=0;pointerEvents=1;strokeColor=default;" vertex="1" parent="uKrZGBWOZSiCV8R7dve0-183">
          <mxGeometry x="749" width="81" height="73" as="geometry">
            <mxRectangle width="81" height="73" as="alternateBounds" />
          </mxGeometry>
        </mxCell>
        <mxCell id="uKrZGBWOZSiCV8R7dve0-333" value="STORAGE&lt;br&gt;&amp;nbsp;ALLOCATED" style="shape=partialRectangle;html=1;whiteSpace=wrap;connectable=0;overflow=hidden;fillColor=none;top=0;left=0;bottom=0;right=0;pointerEvents=1;strokeColor=default;" vertex="1" parent="uKrZGBWOZSiCV8R7dve0-183">
          <mxGeometry x="830" width="81" height="73" as="geometry">
            <mxRectangle width="81" height="73" as="alternateBounds" />
          </mxGeometry>
        </mxCell>
        <mxCell id="uKrZGBWOZSiCV8R7dve0-330" value="STORAGE&lt;br&gt;USAGE" style="shape=partialRectangle;html=1;whiteSpace=wrap;connectable=0;overflow=hidden;fillColor=none;top=0;left=0;bottom=0;right=0;pointerEvents=1;strokeColor=default;" vertex="1" parent="uKrZGBWOZSiCV8R7dve0-183">
          <mxGeometry x="911" width="81" height="73" as="geometry">
            <mxRectangle width="81" height="73" as="alternateBounds" />
          </mxGeometry>
        </mxCell>
        <mxCell id="uKrZGBWOZSiCV8R7dve0-327" value="STORAGE&lt;br&gt;USAGE &lt;br&gt;RATE" style="shape=partialRectangle;html=1;whiteSpace=wrap;connectable=0;overflow=hidden;fillColor=none;top=0;left=0;bottom=0;right=0;pointerEvents=1;strokeColor=default;" vertex="1" parent="uKrZGBWOZSiCV8R7dve0-183">
          <mxGeometry x="992" width="88" height="73" as="geometry">
            <mxRectangle width="88" height="73" as="alternateBounds" />
          </mxGeometry>
        </mxCell>
        <mxCell id="uKrZGBWOZSiCV8R7dve0-416" value="TIME" style="shape=partialRectangle;html=1;whiteSpace=wrap;connectable=0;overflow=hidden;fillColor=none;top=0;left=0;bottom=0;right=0;pointerEvents=1;strokeColor=default;" vertex="1" parent="uKrZGBWOZSiCV8R7dve0-183">
          <mxGeometry x="1080" width="88" height="73" as="geometry">
            <mxRectangle width="88" height="73" as="alternateBounds" />
          </mxGeometry>
        </mxCell>
        <mxCell id="uKrZGBWOZSiCV8R7dve0-194" value="" style="shape=tableRow;horizontal=0;startSize=0;swimlaneHead=0;swimlaneBody=0;top=0;left=0;bottom=0;right=0;collapsible=0;dropTarget=0;fillColor=none;points=[[0,0.5],[1,0.5]];portConstraint=eastwest;strokeColor=default;" vertex="1" parent="uKrZGBWOZSiCV8R7dve0-182">
          <mxGeometry y="73" width="1168" height="74" as="geometry" />
        </mxCell>
        <mxCell id="uKrZGBWOZSiCV8R7dve0-195" value="k8s &lt;br&gt;cluster1" style="shape=partialRectangle;html=1;whiteSpace=wrap;connectable=0;overflow=hidden;fillColor=none;top=0;left=0;bottom=0;right=0;pointerEvents=1;strokeColor=default;" vertex="1" parent="uKrZGBWOZSiCV8R7dve0-194">
          <mxGeometry width="70" height="74" as="geometry">
            <mxRectangle width="70" height="74" as="alternateBounds" />
          </mxGeometry>
        </mxCell>
        <mxCell id="uKrZGBWOZSiCV8R7dve0-196" value="96c" style="shape=partialRectangle;html=1;whiteSpace=wrap;connectable=0;overflow=hidden;fillColor=none;top=0;left=0;bottom=0;right=0;pointerEvents=1;strokeColor=default;" vertex="1" parent="uKrZGBWOZSiCV8R7dve0-194">
          <mxGeometry x="70" width="64" height="74" as="geometry">
            <mxRectangle width="64" height="74" as="alternateBounds" />
          </mxGeometry>
        </mxCell>
        <mxCell id="uKrZGBWOZSiCV8R7dve0-197" value="48c" style="shape=partialRectangle;html=1;whiteSpace=wrap;connectable=0;overflow=hidden;fillColor=none;top=0;left=0;bottom=0;right=0;pointerEvents=1;strokeColor=default;" vertex="1" parent="uKrZGBWOZSiCV8R7dve0-194">
          <mxGeometry x="134" width="90" height="74" as="geometry">
            <mxRectangle width="90" height="74" as="alternateBounds" />
          </mxGeometry>
        </mxCell>
        <mxCell id="uKrZGBWOZSiCV8R7dve0-198" value="24c" style="shape=partialRectangle;html=1;whiteSpace=wrap;connectable=0;overflow=hidden;fillColor=none;top=0;left=0;bottom=0;right=0;pointerEvents=1;strokeColor=default;" vertex="1" parent="uKrZGBWOZSiCV8R7dve0-194">
          <mxGeometry x="224" width="91" height="74" as="geometry">
            <mxRectangle width="91" height="74" as="alternateBounds" />
          </mxGeometry>
        </mxCell>
        <mxCell id="uKrZGBWOZSiCV8R7dve0-199" value="50%" style="shape=partialRectangle;html=1;whiteSpace=wrap;connectable=0;overflow=hidden;fillColor=none;top=0;left=0;bottom=0;right=0;pointerEvents=1;strokeColor=default;" vertex="1" parent="uKrZGBWOZSiCV8R7dve0-194">
          <mxGeometry x="315" width="67" height="74" as="geometry">
            <mxRectangle width="67" height="74" as="alternateBounds" />
          </mxGeometry>
        </mxCell>
        <mxCell id="uKrZGBWOZSiCV8R7dve0-200" value="512Gi" style="shape=partialRectangle;html=1;whiteSpace=wrap;connectable=0;overflow=hidden;fillColor=none;top=0;left=0;bottom=0;right=0;pointerEvents=1;strokeColor=default;" vertex="1" parent="uKrZGBWOZSiCV8R7dve0-194">
          <mxGeometry x="382" width="102" height="74" as="geometry">
            <mxRectangle width="102" height="74" as="alternateBounds" />
          </mxGeometry>
        </mxCell>
        <mxCell id="uKrZGBWOZSiCV8R7dve0-201" value="256Gi" style="shape=partialRectangle;html=1;whiteSpace=wrap;connectable=0;overflow=hidden;fillColor=none;top=0;left=0;bottom=0;right=0;pointerEvents=1;strokeColor=default;" vertex="1" parent="uKrZGBWOZSiCV8R7dve0-194">
          <mxGeometry x="484" width="101" height="74" as="geometry">
            <mxRectangle width="101" height="74" as="alternateBounds" />
          </mxGeometry>
        </mxCell>
        <mxCell id="uKrZGBWOZSiCV8R7dve0-202" value="128Gi" style="shape=partialRectangle;html=1;whiteSpace=wrap;connectable=0;overflow=hidden;fillColor=none;top=0;left=0;bottom=0;right=0;pointerEvents=1;strokeColor=default;" vertex="1" parent="uKrZGBWOZSiCV8R7dve0-194">
          <mxGeometry x="585" width="90" height="74" as="geometry">
            <mxRectangle width="90" height="74" as="alternateBounds" />
          </mxGeometry>
        </mxCell>
        <mxCell id="uKrZGBWOZSiCV8R7dve0-203" value="50%" style="shape=partialRectangle;html=1;whiteSpace=wrap;connectable=0;overflow=hidden;fillColor=none;top=0;left=0;bottom=0;right=0;pointerEvents=1;strokeColor=default;" vertex="1" parent="uKrZGBWOZSiCV8R7dve0-194">
          <mxGeometry x="675" width="74" height="74" as="geometry">
            <mxRectangle width="74" height="74" as="alternateBounds" />
          </mxGeometry>
        </mxCell>
        <mxCell id="uKrZGBWOZSiCV8R7dve0-204" value="1Ti" style="shape=partialRectangle;html=1;whiteSpace=wrap;connectable=0;overflow=hidden;fillColor=none;top=0;left=0;bottom=0;right=0;pointerEvents=1;strokeColor=default;" vertex="1" parent="uKrZGBWOZSiCV8R7dve0-194">
          <mxGeometry x="749" width="81" height="74" as="geometry">
            <mxRectangle width="81" height="74" as="alternateBounds" />
          </mxGeometry>
        </mxCell>
        <mxCell id="uKrZGBWOZSiCV8R7dve0-334" value="512Gi" style="shape=partialRectangle;html=1;whiteSpace=wrap;connectable=0;overflow=hidden;fillColor=none;top=0;left=0;bottom=0;right=0;pointerEvents=1;strokeColor=default;" vertex="1" parent="uKrZGBWOZSiCV8R7dve0-194">
          <mxGeometry x="830" width="81" height="74" as="geometry">
            <mxRectangle width="81" height="74" as="alternateBounds" />
          </mxGeometry>
        </mxCell>
        <mxCell id="uKrZGBWOZSiCV8R7dve0-331" value="256Gi" style="shape=partialRectangle;html=1;whiteSpace=wrap;connectable=0;overflow=hidden;fillColor=none;top=0;left=0;bottom=0;right=0;pointerEvents=1;strokeColor=default;" vertex="1" parent="uKrZGBWOZSiCV8R7dve0-194">
          <mxGeometry x="911" width="81" height="74" as="geometry">
            <mxRectangle width="81" height="74" as="alternateBounds" />
          </mxGeometry>
        </mxCell>
        <mxCell id="uKrZGBWOZSiCV8R7dve0-328" value="50%" style="shape=partialRectangle;html=1;whiteSpace=wrap;connectable=0;overflow=hidden;fillColor=none;top=0;left=0;bottom=0;right=0;pointerEvents=1;strokeColor=default;" vertex="1" parent="uKrZGBWOZSiCV8R7dve0-194">
          <mxGeometry x="992" width="88" height="74" as="geometry">
            <mxRectangle width="88" height="74" as="alternateBounds" />
          </mxGeometry>
        </mxCell>
        <mxCell id="uKrZGBWOZSiCV8R7dve0-417" value="12:00" style="shape=partialRectangle;html=1;whiteSpace=wrap;connectable=0;overflow=hidden;fillColor=none;top=0;left=0;bottom=0;right=0;pointerEvents=1;strokeColor=default;" vertex="1" parent="uKrZGBWOZSiCV8R7dve0-194">
          <mxGeometry x="1080" width="88" height="74" as="geometry">
            <mxRectangle width="88" height="74" as="alternateBounds" />
          </mxGeometry>
        </mxCell>
        <mxCell id="uKrZGBWOZSiCV8R7dve0-205" value="" style="shape=tableRow;horizontal=0;startSize=0;swimlaneHead=0;swimlaneBody=0;top=0;left=0;bottom=0;right=0;collapsible=0;dropTarget=0;fillColor=none;points=[[0,0.5],[1,0.5]];portConstraint=eastwest;strokeColor=default;" vertex="1" parent="uKrZGBWOZSiCV8R7dve0-182">
          <mxGeometry y="147" width="1168" height="73" as="geometry" />
        </mxCell>
        <mxCell id="uKrZGBWOZSiCV8R7dve0-206" value="k8s&lt;br&gt;cluster2" style="shape=partialRectangle;html=1;whiteSpace=wrap;connectable=0;overflow=hidden;fillColor=none;top=0;left=0;bottom=0;right=0;pointerEvents=1;strokeColor=default;" vertex="1" parent="uKrZGBWOZSiCV8R7dve0-205">
          <mxGeometry width="70" height="73" as="geometry">
            <mxRectangle width="70" height="73" as="alternateBounds" />
          </mxGeometry>
        </mxCell>
        <mxCell id="uKrZGBWOZSiCV8R7dve0-207" value="48c" style="shape=partialRectangle;html=1;whiteSpace=wrap;connectable=0;overflow=hidden;fillColor=none;top=0;left=0;bottom=0;right=0;pointerEvents=1;strokeColor=default;" vertex="1" parent="uKrZGBWOZSiCV8R7dve0-205">
          <mxGeometry x="70" width="64" height="73" as="geometry">
            <mxRectangle width="64" height="73" as="alternateBounds" />
          </mxGeometry>
        </mxCell>
        <mxCell id="uKrZGBWOZSiCV8R7dve0-208" value="24c" style="shape=partialRectangle;html=1;whiteSpace=wrap;connectable=0;overflow=hidden;fillColor=none;top=0;left=0;bottom=0;right=0;pointerEvents=1;strokeColor=default;" vertex="1" parent="uKrZGBWOZSiCV8R7dve0-205">
          <mxGeometry x="134" width="90" height="73" as="geometry">
            <mxRectangle width="90" height="73" as="alternateBounds" />
          </mxGeometry>
        </mxCell>
        <mxCell id="uKrZGBWOZSiCV8R7dve0-209" value="6c" style="shape=partialRectangle;html=1;whiteSpace=wrap;connectable=0;overflow=hidden;fillColor=none;top=0;left=0;bottom=0;right=0;pointerEvents=1;strokeColor=default;" vertex="1" parent="uKrZGBWOZSiCV8R7dve0-205">
          <mxGeometry x="224" width="91" height="73" as="geometry">
            <mxRectangle width="91" height="73" as="alternateBounds" />
          </mxGeometry>
        </mxCell>
        <mxCell id="uKrZGBWOZSiCV8R7dve0-210" value="25%" style="shape=partialRectangle;html=1;whiteSpace=wrap;connectable=0;overflow=hidden;fillColor=none;top=0;left=0;bottom=0;right=0;pointerEvents=1;strokeColor=default;" vertex="1" parent="uKrZGBWOZSiCV8R7dve0-205">
          <mxGeometry x="315" width="67" height="73" as="geometry">
            <mxRectangle width="67" height="73" as="alternateBounds" />
          </mxGeometry>
        </mxCell>
        <mxCell id="uKrZGBWOZSiCV8R7dve0-211" value="256Gi" style="shape=partialRectangle;html=1;whiteSpace=wrap;connectable=0;overflow=hidden;fillColor=none;top=0;left=0;bottom=0;right=0;pointerEvents=1;strokeColor=default;" vertex="1" parent="uKrZGBWOZSiCV8R7dve0-205">
          <mxGeometry x="382" width="102" height="73" as="geometry">
            <mxRectangle width="102" height="73" as="alternateBounds" />
          </mxGeometry>
        </mxCell>
        <mxCell id="uKrZGBWOZSiCV8R7dve0-212" value="128Gi" style="shape=partialRectangle;html=1;whiteSpace=wrap;connectable=0;overflow=hidden;fillColor=none;top=0;left=0;bottom=0;right=0;pointerEvents=1;strokeColor=default;" vertex="1" parent="uKrZGBWOZSiCV8R7dve0-205">
          <mxGeometry x="484" width="101" height="73" as="geometry">
            <mxRectangle width="101" height="73" as="alternateBounds" />
          </mxGeometry>
        </mxCell>
        <mxCell id="uKrZGBWOZSiCV8R7dve0-213" value="64Gi" style="shape=partialRectangle;html=1;whiteSpace=wrap;connectable=0;overflow=hidden;fillColor=none;top=0;left=0;bottom=0;right=0;pointerEvents=1;strokeColor=default;" vertex="1" parent="uKrZGBWOZSiCV8R7dve0-205">
          <mxGeometry x="585" width="90" height="73" as="geometry">
            <mxRectangle width="90" height="73" as="alternateBounds" />
          </mxGeometry>
        </mxCell>
        <mxCell id="uKrZGBWOZSiCV8R7dve0-214" value="25%" style="shape=partialRectangle;html=1;whiteSpace=wrap;connectable=0;overflow=hidden;fillColor=none;top=0;left=0;bottom=0;right=0;pointerEvents=1;strokeColor=default;" vertex="1" parent="uKrZGBWOZSiCV8R7dve0-205">
          <mxGeometry x="675" width="74" height="73" as="geometry">
            <mxRectangle width="74" height="73" as="alternateBounds" />
          </mxGeometry>
        </mxCell>
        <mxCell id="uKrZGBWOZSiCV8R7dve0-215" value="512Gi" style="shape=partialRectangle;html=1;whiteSpace=wrap;connectable=0;overflow=hidden;fillColor=none;top=0;left=0;bottom=0;right=0;pointerEvents=1;strokeColor=default;" vertex="1" parent="uKrZGBWOZSiCV8R7dve0-205">
          <mxGeometry x="749" width="81" height="73" as="geometry">
            <mxRectangle width="81" height="73" as="alternateBounds" />
          </mxGeometry>
        </mxCell>
        <mxCell id="uKrZGBWOZSiCV8R7dve0-335" value="256Gi" style="shape=partialRectangle;html=1;whiteSpace=wrap;connectable=0;overflow=hidden;fillColor=none;top=0;left=0;bottom=0;right=0;pointerEvents=1;strokeColor=default;" vertex="1" parent="uKrZGBWOZSiCV8R7dve0-205">
          <mxGeometry x="830" width="81" height="73" as="geometry">
            <mxRectangle width="81" height="73" as="alternateBounds" />
          </mxGeometry>
        </mxCell>
        <mxCell id="uKrZGBWOZSiCV8R7dve0-332" value="64Gi" style="shape=partialRectangle;html=1;whiteSpace=wrap;connectable=0;overflow=hidden;fillColor=none;top=0;left=0;bottom=0;right=0;pointerEvents=1;strokeColor=default;" vertex="1" parent="uKrZGBWOZSiCV8R7dve0-205">
          <mxGeometry x="911" width="81" height="73" as="geometry">
            <mxRectangle width="81" height="73" as="alternateBounds" />
          </mxGeometry>
        </mxCell>
        <mxCell id="uKrZGBWOZSiCV8R7dve0-329" value="25%" style="shape=partialRectangle;html=1;whiteSpace=wrap;connectable=0;overflow=hidden;fillColor=none;top=0;left=0;bottom=0;right=0;pointerEvents=1;strokeColor=default;" vertex="1" parent="uKrZGBWOZSiCV8R7dve0-205">
          <mxGeometry x="992" width="88" height="73" as="geometry">
            <mxRectangle width="88" height="73" as="alternateBounds" />
          </mxGeometry>
        </mxCell>
        <mxCell id="uKrZGBWOZSiCV8R7dve0-418" value="12:00" style="shape=partialRectangle;html=1;whiteSpace=wrap;connectable=0;overflow=hidden;fillColor=none;top=0;left=0;bottom=0;right=0;pointerEvents=1;strokeColor=default;" vertex="1" parent="uKrZGBWOZSiCV8R7dve0-205">
          <mxGeometry x="1080" width="88" height="73" as="geometry">
            <mxRectangle width="88" height="73" as="alternateBounds" />
          </mxGeometry>
        </mxCell>
        <mxCell id="uKrZGBWOZSiCV8R7dve0-373" value="" style="verticalLabelPosition=bottom;shadow=0;dashed=0;align=center;html=1;verticalAlign=top;strokeWidth=1;shape=ellipse;perimeter=ellipsePerimeter;strokeColor=default;fillColor=default;" vertex="1" parent="1">
          <mxGeometry x="-485" y="-170" width="15" height="15" as="geometry" />
        </mxCell>
        <mxCell id="uKrZGBWOZSiCV8R7dve0-374" value="" style="verticalLabelPosition=bottom;shadow=0;dashed=0;align=center;html=1;verticalAlign=top;strokeWidth=1;shape=ellipse;perimeter=ellipsePerimeter;strokeColor=#23445d;fillColor=#bac8d3;" vertex="1" parent="1">
          <mxGeometry x="-485" y="-247.5" width="15" height="15" as="geometry" />
        </mxCell>
        <mxCell id="uKrZGBWOZSiCV8R7dve0-378" value="&lt;font style=&quot;font-size: 19px;&quot;&gt;全平台&lt;/font&gt;" style="text;html=1;strokeColor=none;fillColor=none;align=center;verticalAlign=middle;whiteSpace=wrap;rounded=0;" vertex="1" parent="1">
          <mxGeometry x="10" y="-390" width="60" height="30" as="geometry" />
        </mxCell>
        <mxCell id="uKrZGBWOZSiCV8R7dve0-379" value="" style="endArrow=classic;html=1;rounded=0;fontSize=19;" edge="1" parent="1">
          <mxGeometry width="50" height="50" relative="1" as="geometry">
            <mxPoint x="-450" y="230" as="sourcePoint" />
            <mxPoint x="90" y="230" as="targetPoint" />
          </mxGeometry>
        </mxCell>
        <mxCell id="uKrZGBWOZSiCV8R7dve0-380" value="" style="endArrow=classic;html=1;rounded=0;fontSize=19;" edge="1" parent="1">
          <mxGeometry width="50" height="50" relative="1" as="geometry">
            <mxPoint x="-450" y="230" as="sourcePoint" />
            <mxPoint x="-450" y="-10" as="targetPoint" />
          </mxGeometry>
        </mxCell>
        <mxCell id="uKrZGBWOZSiCV8R7dve0-381" value="" style="curved=1;endArrow=none;html=1;rounded=0;fontSize=19;endFill=0;fillColor=#6a00ff;strokeColor=#3700CC;" edge="1" parent="1">
          <mxGeometry width="50" height="50" relative="1" as="geometry">
            <mxPoint x="70" y="190" as="sourcePoint" />
            <mxPoint x="-450" y="230" as="targetPoint" />
            <Array as="points">
              <mxPoint x="-60" y="240" />
              <mxPoint x="-270" y="170" />
              <mxPoint x="-330" y="230" />
            </Array>
          </mxGeometry>
        </mxCell>
        <mxCell id="uKrZGBWOZSiCV8R7dve0-384" value="" style="endArrow=none;html=1;rounded=0;strokeColor=#b46504;fontSize=19;fillColor=#fad7ac;" edge="1" parent="1">
          <mxGeometry width="50" height="50" relative="1" as="geometry">
            <mxPoint x="70" y="60" as="sourcePoint" />
            <mxPoint x="-450" y="60" as="targetPoint" />
          </mxGeometry>
        </mxCell>
        <mxCell id="uKrZGBWOZSiCV8R7dve0-385" value="" style="endArrow=none;html=1;rounded=0;strokeColor=#0e8088;fontSize=19;fillColor=#b0e3e6;" edge="1" parent="1">
          <mxGeometry width="50" height="50" relative="1" as="geometry">
            <mxPoint x="70" y="150" as="sourcePoint" />
            <mxPoint x="-450" y="150" as="targetPoint" />
          </mxGeometry>
        </mxCell>
        <mxCell id="uKrZGBWOZSiCV8R7dve0-387" value="" style="endArrow=none;html=1;rounded=0;strokeColor=#b46504;fontSize=19;fillColor=#fad7ac;" edge="1" parent="1">
          <mxGeometry width="50" height="50" relative="1" as="geometry">
            <mxPoint x="10" y="294.33" as="sourcePoint" />
            <mxPoint x="-30" y="294.33" as="targetPoint" />
            <Array as="points">
              <mxPoint x="-40" y="294.33" />
            </Array>
          </mxGeometry>
        </mxCell>
        <mxCell id="uKrZGBWOZSiCV8R7dve0-388" value="CPU TOTAL" style="text;html=1;strokeColor=none;fillColor=none;align=center;verticalAlign=middle;whiteSpace=wrap;rounded=0;fontSize=10;" vertex="1" parent="1">
          <mxGeometry y="280" width="90" height="30" as="geometry" />
        </mxCell>
        <mxCell id="uKrZGBWOZSiCV8R7dve0-397" value="" style="endArrow=none;html=1;rounded=0;strokeColor=#0e8088;fontSize=19;fillColor=#b0e3e6;" edge="1" parent="1">
          <mxGeometry width="50" height="50" relative="1" as="geometry">
            <mxPoint x="10" y="324" as="sourcePoint" />
            <mxPoint x="-40" y="324" as="targetPoint" />
          </mxGeometry>
        </mxCell>
        <mxCell id="uKrZGBWOZSiCV8R7dve0-398" value="" style="curved=1;endArrow=none;html=1;rounded=0;fontSize=19;endFill=0;fillColor=#6a00ff;strokeColor=#3700CC;" edge="1" parent="1">
          <mxGeometry width="50" height="50" relative="1" as="geometry">
            <mxPoint x="10" y="354.33" as="sourcePoint" />
            <mxPoint x="-40" y="354.33" as="targetPoint" />
            <Array as="points" />
          </mxGeometry>
        </mxCell>
        <mxCell id="uKrZGBWOZSiCV8R7dve0-399" value="CPU" style="text;html=1;strokeColor=none;fillColor=none;align=center;verticalAlign=middle;whiteSpace=wrap;rounded=0;fontSize=19;" vertex="1" parent="1">
          <mxGeometry x="-250" y="-40" width="60" height="30" as="geometry" />
        </mxCell>
        <mxCell id="uKrZGBWOZSiCV8R7dve0-401" value="96c" style="text;html=1;strokeColor=none;fillColor=none;align=center;verticalAlign=middle;whiteSpace=wrap;rounded=0;fontSize=19;" vertex="1" parent="1">
          <mxGeometry x="-500" y="40" width="60" height="40" as="geometry" />
        </mxCell>
        <mxCell id="uKrZGBWOZSiCV8R7dve0-402" value="48c" style="text;html=1;strokeColor=none;fillColor=none;align=center;verticalAlign=middle;whiteSpace=wrap;rounded=0;fontSize=19;" vertex="1" parent="1">
          <mxGeometry x="-500" y="130" width="60" height="40" as="geometry" />
        </mxCell>
        <mxCell id="uKrZGBWOZSiCV8R7dve0-403" value="24c" style="text;html=1;strokeColor=none;fillColor=none;align=center;verticalAlign=middle;whiteSpace=wrap;rounded=0;fontSize=19;" vertex="1" parent="1">
          <mxGeometry x="-500" y="170" width="60" height="45" as="geometry" />
        </mxCell>
        <mxCell id="uKrZGBWOZSiCV8R7dve0-412" value="CPU ALLOCATED" style="text;html=1;strokeColor=none;fillColor=none;align=center;verticalAlign=middle;whiteSpace=wrap;rounded=0;fontSize=10;" vertex="1" parent="1">
          <mxGeometry y="310" width="120" height="30" as="geometry" />
        </mxCell>
        <mxCell id="uKrZGBWOZSiCV8R7dve0-413" value="CPU USAGE" style="text;html=1;strokeColor=none;fillColor=none;align=center;verticalAlign=middle;whiteSpace=wrap;rounded=0;fontSize=10;" vertex="1" parent="1">
          <mxGeometry y="340" width="90" height="30" as="geometry" />
        </mxCell>
        <mxCell id="uKrZGBWOZSiCV8R7dve0-415" value="0c" style="text;html=1;strokeColor=none;fillColor=none;align=center;verticalAlign=middle;whiteSpace=wrap;rounded=0;fontSize=19;" vertex="1" parent="1">
          <mxGeometry x="-500" y="210" width="60" height="45" as="geometry" />
        </mxCell>
        <mxCell id="uKrZGBWOZSiCV8R7dve0-419" value="12:00" style="text;html=1;strokeColor=none;fillColor=none;align=center;verticalAlign=middle;whiteSpace=wrap;rounded=0;fontSize=19;" vertex="1" parent="1">
          <mxGeometry x="35" y="230" width="55" height="40" as="geometry" />
        </mxCell>
        <mxCell id="uKrZGBWOZSiCV8R7dve0-421" value="6:00" style="text;html=1;strokeColor=none;fillColor=none;align=center;verticalAlign=middle;whiteSpace=wrap;rounded=0;fontSize=19;" vertex="1" parent="1">
          <mxGeometry x="-220" y="230" width="55" height="40" as="geometry" />
        </mxCell>
        <mxCell id="uKrZGBWOZSiCV8R7dve0-422" value="0:00" style="text;html=1;strokeColor=none;fillColor=none;align=center;verticalAlign=middle;whiteSpace=wrap;rounded=0;fontSize=19;" vertex="1" parent="1">
          <mxGeometry x="-460" y="230" width="55" height="40" as="geometry" />
        </mxCell>
        <mxCell id="uKrZGBWOZSiCV8R7dve0-423" value="50%" style="text;html=1;strokeColor=none;fillColor=none;align=center;verticalAlign=middle;whiteSpace=wrap;rounded=0;fontSize=19;" vertex="1" parent="1">
          <mxGeometry x="70" y="170" width="60" height="45" as="geometry" />
        </mxCell>
        <mxCell id="uKrZGBWOZSiCV8R7dve0-464" value="" style="endArrow=classic;html=1;rounded=0;fontSize=19;" edge="1" parent="1">
          <mxGeometry width="50" height="50" relative="1" as="geometry">
            <mxPoint x="400" y="230" as="sourcePoint" />
            <mxPoint x="940" y="230" as="targetPoint" />
          </mxGeometry>
        </mxCell>
        <mxCell id="uKrZGBWOZSiCV8R7dve0-465" value="" style="endArrow=classic;html=1;rounded=0;fontSize=19;" edge="1" parent="1">
          <mxGeometry width="50" height="50" relative="1" as="geometry">
            <mxPoint x="400" y="230" as="sourcePoint" />
            <mxPoint x="400" y="-10" as="targetPoint" />
          </mxGeometry>
        </mxCell>
        <mxCell id="uKrZGBWOZSiCV8R7dve0-466" value="" style="curved=1;endArrow=none;html=1;rounded=0;fontSize=19;endFill=0;fillColor=#6a00ff;strokeColor=#3700CC;" edge="1" parent="1">
          <mxGeometry width="50" height="50" relative="1" as="geometry">
            <mxPoint x="920" y="190" as="sourcePoint" />
            <mxPoint x="400" y="230" as="targetPoint" />
            <Array as="points">
              <mxPoint x="830" y="230" />
              <mxPoint x="800" y="170" />
              <mxPoint x="720" y="210" />
              <mxPoint x="630" y="170" />
              <mxPoint x="620" y="220" />
              <mxPoint x="530" y="190" />
              <mxPoint x="490" y="210" />
              <mxPoint x="450" y="150" />
            </Array>
          </mxGeometry>
        </mxCell>
        <mxCell id="uKrZGBWOZSiCV8R7dve0-467" value="" style="endArrow=none;html=1;rounded=0;strokeColor=#b46504;fontSize=19;fillColor=#fad7ac;" edge="1" parent="1">
          <mxGeometry width="50" height="50" relative="1" as="geometry">
            <mxPoint x="920" y="60" as="sourcePoint" />
            <mxPoint x="400" y="60" as="targetPoint" />
          </mxGeometry>
        </mxCell>
        <mxCell id="uKrZGBWOZSiCV8R7dve0-468" value="" style="endArrow=none;html=1;rounded=0;strokeColor=#0e8088;fontSize=19;fillColor=#b0e3e6;" edge="1" parent="1">
          <mxGeometry width="50" height="50" relative="1" as="geometry">
            <mxPoint x="920" y="150" as="sourcePoint" />
            <mxPoint x="400" y="150" as="targetPoint" />
          </mxGeometry>
        </mxCell>
        <mxCell id="uKrZGBWOZSiCV8R7dve0-469" value="" style="endArrow=none;html=1;rounded=0;strokeColor=#b46504;fontSize=19;fillColor=#fad7ac;" edge="1" parent="1">
          <mxGeometry width="50" height="50" relative="1" as="geometry">
            <mxPoint x="860" y="294.3299999999999" as="sourcePoint" />
            <mxPoint x="820" y="294.3299999999999" as="targetPoint" />
            <Array as="points">
              <mxPoint x="810" y="294.33" />
            </Array>
          </mxGeometry>
        </mxCell>
        <mxCell id="uKrZGBWOZSiCV8R7dve0-470" value="MEMORY TOTAL" style="text;html=1;strokeColor=none;fillColor=none;align=center;verticalAlign=middle;whiteSpace=wrap;rounded=0;fontSize=10;" vertex="1" parent="1">
          <mxGeometry x="850" y="280" width="120" height="30" as="geometry" />
        </mxCell>
        <mxCell id="uKrZGBWOZSiCV8R7dve0-471" value="" style="endArrow=none;html=1;rounded=0;strokeColor=#0e8088;fontSize=19;fillColor=#b0e3e6;" edge="1" parent="1">
          <mxGeometry width="50" height="50" relative="1" as="geometry">
            <mxPoint x="860" y="324" as="sourcePoint" />
            <mxPoint x="810" y="324" as="targetPoint" />
          </mxGeometry>
        </mxCell>
        <mxCell id="uKrZGBWOZSiCV8R7dve0-472" value="" style="curved=1;endArrow=none;html=1;rounded=0;fontSize=19;endFill=0;fillColor=#6a00ff;strokeColor=#3700CC;" edge="1" parent="1">
          <mxGeometry width="50" height="50" relative="1" as="geometry">
            <mxPoint x="860" y="354.3299999999999" as="sourcePoint" />
            <mxPoint x="810" y="354.3299999999999" as="targetPoint" />
            <Array as="points" />
          </mxGeometry>
        </mxCell>
        <mxCell id="uKrZGBWOZSiCV8R7dve0-473" value="MEMORY" style="text;html=1;strokeColor=none;fillColor=none;align=center;verticalAlign=middle;whiteSpace=wrap;rounded=0;fontSize=19;" vertex="1" parent="1">
          <mxGeometry x="600" y="-40" width="60" height="30" as="geometry" />
        </mxCell>
        <mxCell id="uKrZGBWOZSiCV8R7dve0-474" value="512Gi" style="text;html=1;strokeColor=none;fillColor=none;align=center;verticalAlign=middle;whiteSpace=wrap;rounded=0;fontSize=19;" vertex="1" parent="1">
          <mxGeometry x="340" y="40" width="60" height="40" as="geometry" />
        </mxCell>
        <mxCell id="uKrZGBWOZSiCV8R7dve0-475" value="256Gi" style="text;html=1;strokeColor=none;fillColor=none;align=center;verticalAlign=middle;whiteSpace=wrap;rounded=0;fontSize=19;" vertex="1" parent="1">
          <mxGeometry x="340" y="130" width="60" height="40" as="geometry" />
        </mxCell>
        <mxCell id="uKrZGBWOZSiCV8R7dve0-476" value="128Gi" style="text;html=1;strokeColor=none;fillColor=none;align=center;verticalAlign=middle;whiteSpace=wrap;rounded=0;fontSize=19;" vertex="1" parent="1">
          <mxGeometry x="340" y="170" width="60" height="45" as="geometry" />
        </mxCell>
        <mxCell id="uKrZGBWOZSiCV8R7dve0-477" value="MEMORY ALLOCATED" style="text;html=1;strokeColor=none;fillColor=none;align=center;verticalAlign=middle;whiteSpace=wrap;rounded=0;fontSize=10;" vertex="1" parent="1">
          <mxGeometry x="850" y="310" width="150" height="30" as="geometry" />
        </mxCell>
        <mxCell id="uKrZGBWOZSiCV8R7dve0-478" value="MEMORY USAGE" style="text;html=1;strokeColor=none;fillColor=none;align=center;verticalAlign=middle;whiteSpace=wrap;rounded=0;fontSize=10;" vertex="1" parent="1">
          <mxGeometry x="845" y="340" width="130" height="30" as="geometry" />
        </mxCell>
        <mxCell id="uKrZGBWOZSiCV8R7dve0-479" value="0" style="text;html=1;strokeColor=none;fillColor=none;align=center;verticalAlign=middle;whiteSpace=wrap;rounded=0;fontSize=19;" vertex="1" parent="1">
          <mxGeometry x="340" y="210" width="60" height="45" as="geometry" />
        </mxCell>
        <mxCell id="uKrZGBWOZSiCV8R7dve0-480" value="12:00" style="text;html=1;strokeColor=none;fillColor=none;align=center;verticalAlign=middle;whiteSpace=wrap;rounded=0;fontSize=19;" vertex="1" parent="1">
          <mxGeometry x="885" y="230" width="55" height="40" as="geometry" />
        </mxCell>
        <mxCell id="uKrZGBWOZSiCV8R7dve0-481" value="6:00" style="text;html=1;strokeColor=none;fillColor=none;align=center;verticalAlign=middle;whiteSpace=wrap;rounded=0;fontSize=19;" vertex="1" parent="1">
          <mxGeometry x="630" y="230" width="55" height="40" as="geometry" />
        </mxCell>
        <mxCell id="uKrZGBWOZSiCV8R7dve0-482" value="0:00" style="text;html=1;strokeColor=none;fillColor=none;align=center;verticalAlign=middle;whiteSpace=wrap;rounded=0;fontSize=19;" vertex="1" parent="1">
          <mxGeometry x="390" y="230" width="55" height="40" as="geometry" />
        </mxCell>
        <mxCell id="uKrZGBWOZSiCV8R7dve0-483" value="50%" style="text;html=1;strokeColor=none;fillColor=none;align=center;verticalAlign=middle;whiteSpace=wrap;rounded=0;fontSize=19;" vertex="1" parent="1">
          <mxGeometry x="920" y="170" width="60" height="45" as="geometry" />
        </mxCell>
        <mxCell id="uKrZGBWOZSiCV8R7dve0-486" value="" style="endArrow=classic;html=1;rounded=0;fontSize=19;" edge="1" parent="1">
          <mxGeometry width="50" height="50" relative="1" as="geometry">
            <mxPoint x="-440" y="680" as="sourcePoint" />
            <mxPoint x="100" y="680" as="targetPoint" />
          </mxGeometry>
        </mxCell>
        <mxCell id="uKrZGBWOZSiCV8R7dve0-487" value="" style="endArrow=classic;html=1;rounded=0;fontSize=19;" edge="1" parent="1">
          <mxGeometry width="50" height="50" relative="1" as="geometry">
            <mxPoint x="-440" y="680" as="sourcePoint" />
            <mxPoint x="-440" y="440" as="targetPoint" />
          </mxGeometry>
        </mxCell>
        <mxCell id="uKrZGBWOZSiCV8R7dve0-488" value="" style="curved=1;endArrow=none;html=1;rounded=0;fontSize=19;endFill=0;fillColor=#6a00ff;strokeColor=#3700CC;" edge="1" parent="1">
          <mxGeometry width="50" height="50" relative="1" as="geometry">
            <mxPoint x="80" y="640" as="sourcePoint" />
            <mxPoint x="-440" y="680" as="targetPoint" />
            <Array as="points">
              <mxPoint y="620" />
              <mxPoint x="-50" y="690" />
              <mxPoint x="-110" y="610" />
              <mxPoint x="-260" y="680" />
              <mxPoint x="-390" y="620" />
            </Array>
          </mxGeometry>
        </mxCell>
        <mxCell id="uKrZGBWOZSiCV8R7dve0-489" value="" style="endArrow=none;html=1;rounded=0;strokeColor=#b46504;fontSize=19;fillColor=#fad7ac;" edge="1" parent="1">
          <mxGeometry width="50" height="50" relative="1" as="geometry">
            <mxPoint x="80" y="510" as="sourcePoint" />
            <mxPoint x="-440" y="510" as="targetPoint" />
          </mxGeometry>
        </mxCell>
        <mxCell id="uKrZGBWOZSiCV8R7dve0-490" value="" style="endArrow=none;html=1;rounded=0;strokeColor=#0e8088;fontSize=19;fillColor=#b0e3e6;" edge="1" parent="1">
          <mxGeometry width="50" height="50" relative="1" as="geometry">
            <mxPoint x="80" y="600" as="sourcePoint" />
            <mxPoint x="-440" y="600" as="targetPoint" />
          </mxGeometry>
        </mxCell>
        <mxCell id="uKrZGBWOZSiCV8R7dve0-491" value="" style="endArrow=none;html=1;rounded=0;strokeColor=#b46504;fontSize=19;fillColor=#fad7ac;" edge="1" parent="1">
          <mxGeometry width="50" height="50" relative="1" as="geometry">
            <mxPoint x="20" y="744.3299999999999" as="sourcePoint" />
            <mxPoint x="-20" y="744.3299999999999" as="targetPoint" />
            <Array as="points">
              <mxPoint x="-30" y="744.3299999999999" />
            </Array>
          </mxGeometry>
        </mxCell>
        <mxCell id="uKrZGBWOZSiCV8R7dve0-492" value="STORAGE TOTAL" style="text;html=1;strokeColor=none;fillColor=none;align=center;verticalAlign=middle;whiteSpace=wrap;rounded=0;fontSize=10;" vertex="1" parent="1">
          <mxGeometry x="12.5" y="730" width="120" height="30" as="geometry" />
        </mxCell>
        <mxCell id="uKrZGBWOZSiCV8R7dve0-493" value="" style="endArrow=none;html=1;rounded=0;strokeColor=#0e8088;fontSize=19;fillColor=#b0e3e6;" edge="1" parent="1">
          <mxGeometry width="50" height="50" relative="1" as="geometry">
            <mxPoint x="20" y="774" as="sourcePoint" />
            <mxPoint x="-30" y="774" as="targetPoint" />
          </mxGeometry>
        </mxCell>
        <mxCell id="uKrZGBWOZSiCV8R7dve0-494" value="" style="curved=1;endArrow=none;html=1;rounded=0;fontSize=19;endFill=0;fillColor=#6a00ff;strokeColor=#3700CC;" edge="1" parent="1">
          <mxGeometry width="50" height="50" relative="1" as="geometry">
            <mxPoint x="20" y="804.3299999999999" as="sourcePoint" />
            <mxPoint x="-30" y="804.3299999999999" as="targetPoint" />
            <Array as="points" />
          </mxGeometry>
        </mxCell>
        <mxCell id="uKrZGBWOZSiCV8R7dve0-495" value="STORAGE" style="text;html=1;strokeColor=none;fillColor=none;align=center;verticalAlign=middle;whiteSpace=wrap;rounded=0;fontSize=19;" vertex="1" parent="1">
          <mxGeometry x="-240" y="410" width="60" height="30" as="geometry" />
        </mxCell>
        <mxCell id="uKrZGBWOZSiCV8R7dve0-496" value="1Ti" style="text;html=1;strokeColor=none;fillColor=none;align=center;verticalAlign=middle;whiteSpace=wrap;rounded=0;fontSize=19;" vertex="1" parent="1">
          <mxGeometry x="-500" y="490" width="60" height="40" as="geometry" />
        </mxCell>
        <mxCell id="uKrZGBWOZSiCV8R7dve0-497" value="512Gi" style="text;html=1;strokeColor=none;fillColor=none;align=center;verticalAlign=middle;whiteSpace=wrap;rounded=0;fontSize=19;" vertex="1" parent="1">
          <mxGeometry x="-500" y="580" width="60" height="40" as="geometry" />
        </mxCell>
        <mxCell id="uKrZGBWOZSiCV8R7dve0-498" value="256Gi" style="text;html=1;strokeColor=none;fillColor=none;align=center;verticalAlign=middle;whiteSpace=wrap;rounded=0;fontSize=19;" vertex="1" parent="1">
          <mxGeometry x="-500" y="620" width="60" height="45" as="geometry" />
        </mxCell>
        <mxCell id="uKrZGBWOZSiCV8R7dve0-499" value="STORAGE&amp;nbsp;ALLOCATED" style="text;html=1;strokeColor=none;fillColor=none;align=center;verticalAlign=middle;whiteSpace=wrap;rounded=0;fontSize=10;" vertex="1" parent="1">
          <mxGeometry x="10" y="760" width="160" height="30" as="geometry" />
        </mxCell>
        <mxCell id="uKrZGBWOZSiCV8R7dve0-500" value="STORAGE USAGE" style="text;html=1;strokeColor=none;fillColor=none;align=center;verticalAlign=middle;whiteSpace=wrap;rounded=0;fontSize=10;" vertex="1" parent="1">
          <mxGeometry x="10" y="790" width="130" height="30" as="geometry" />
        </mxCell>
        <mxCell id="uKrZGBWOZSiCV8R7dve0-501" value="0" style="text;html=1;strokeColor=none;fillColor=none;align=center;verticalAlign=middle;whiteSpace=wrap;rounded=0;fontSize=19;" vertex="1" parent="1">
          <mxGeometry x="-500" y="660" width="60" height="45" as="geometry" />
        </mxCell>
        <mxCell id="uKrZGBWOZSiCV8R7dve0-502" value="12:00" style="text;html=1;strokeColor=none;fillColor=none;align=center;verticalAlign=middle;whiteSpace=wrap;rounded=0;fontSize=19;" vertex="1" parent="1">
          <mxGeometry x="45" y="680" width="55" height="40" as="geometry" />
        </mxCell>
        <mxCell id="uKrZGBWOZSiCV8R7dve0-503" value="6:00" style="text;html=1;strokeColor=none;fillColor=none;align=center;verticalAlign=middle;whiteSpace=wrap;rounded=0;fontSize=19;" vertex="1" parent="1">
          <mxGeometry x="-210" y="680" width="55" height="40" as="geometry" />
        </mxCell>
        <mxCell id="uKrZGBWOZSiCV8R7dve0-504" value="0:00" style="text;html=1;strokeColor=none;fillColor=none;align=center;verticalAlign=middle;whiteSpace=wrap;rounded=0;fontSize=19;" vertex="1" parent="1">
          <mxGeometry x="-450" y="680" width="55" height="40" as="geometry" />
        </mxCell>
        <mxCell id="uKrZGBWOZSiCV8R7dve0-505" value="50%" style="text;html=1;strokeColor=none;fillColor=none;align=center;verticalAlign=middle;whiteSpace=wrap;rounded=0;fontSize=19;" vertex="1" parent="1">
          <mxGeometry x="80" y="620" width="60" height="45" as="geometry" />
        </mxCell>
        <mxCell id="uKrZGBWOZSiCV8R7dve0-506" value="K8S集群：k8s cluster1" style="text;html=1;fillColor=#bac8d3;align=center;verticalAlign=middle;whiteSpace=wrap;rounded=0;fontSize=15;fillStyle=auto;strokeColor=#23445d;" vertex="1" parent="1">
          <mxGeometry x="-507" y="-80" width="167" height="30" as="geometry" />
        </mxCell>
        <mxCell id="uKrZGBWOZSiCV8R7dve0-507" value="" style="endArrow=none;html=1;rounded=0;strokeColor=default;fontSize=15;fontColor=default;entryX=0.06;entryY=-0.034;entryDx=0;entryDy=0;entryPerimeter=0;" edge="1" parent="1" target="uKrZGBWOZSiCV8R7dve0-194">
          <mxGeometry width="50" height="50" relative="1" as="geometry">
            <mxPoint x="-450" y="-350" as="sourcePoint" />
            <mxPoint x="-400" y="-310" as="targetPoint" />
          </mxGeometry>
        </mxCell>
        <mxCell id="uKrZGBWOZSiCV8R7dve0-508" value="k8s集群" style="text;html=1;strokeColor=none;fillColor=none;align=center;verticalAlign=middle;whiteSpace=wrap;rounded=0;fillStyle=auto;fontSize=15;fontColor=default;" vertex="1" parent="1">
          <mxGeometry x="-450" y="-310" width="40" height="10" as="geometry" />
        </mxCell>
        <mxCell id="uKrZGBWOZSiCV8R7dve0-509" value="资源" style="text;html=1;strokeColor=none;fillColor=none;align=center;verticalAlign=middle;whiteSpace=wrap;rounded=0;fillStyle=auto;fontSize=15;fontColor=default;" vertex="1" parent="1">
          <mxGeometry x="-430" y="-340" width="60" height="30" as="geometry" />
        </mxCell>
      </root>
    </mxGraphModel>
  </diagram>
</mxfile>
